<svg xmlns="http://www.w3.org/2000/svg" xmlns:xlink="http://www.w3.org/1999/xlink" width="40" zoomAndPan="magnify" viewBox="0 0 30 30.000001" height="40" preserveAspectRatio="xMidYMid meet" version="1.0"><defs><clipPath id="bf63969a10"><path d="M 4.761719 5.441406 L 25.085938 5.441406 L 25.085938 23.585938 L 4.761719 23.585938 Z M 4.761719 5.441406 " clip-rule="nonzero"/></clipPath></defs><g clip-path="url(#bf63969a10)"><path fill="#ffffff" d="M 15.359375 17.984375 L 15.359375 19.070312 L 16.28125 19.410156 L 16.28125 18.324219 Z M 15.359375 15.859375 L 15.359375 16.949219 L 16.28125 17.289062 L 16.28125 16.199219 Z M 19.964844 14.597656 L 17.9375 15.914062 L 17.9375 21.351562 C 18.628906 21.429688 19.304688 21.535156 19.964844 21.667969 Z M 15.359375 13.738281 L 15.359375 14.824219 L 16.28125 15.164062 L 16.28125 14.078125 Z M 9.605469 13.433594 L 7.578125 14.75 L 7.578125 22.292969 C 8.226562 22.082031 8.902344 21.902344 9.605469 21.753906 Z M 17.191406 12.292969 L 17.191406 13.378906 L 18.117188 13.714844 L 18.117188 12.628906 Z M 15.359375 11.617188 L 15.359375 12.703125 L 16.28125 13.042969 L 16.28125 11.957031 Z M 17.191406 10.167969 L 17.191406 11.257812 L 18.117188 11.59375 L 18.117188 10.507812 Z M 15.359375 9.496094 L 15.359375 10.582031 L 16.28125 10.921875 L 16.28125 9.832031 Z M 17.191406 8.046875 L 17.191406 9.132812 L 18.117188 9.472656 L 18.117188 8.382812 Z M 15.359375 7.371094 L 15.359375 8.460938 L 16.28125 8.796875 L 16.28125 7.710938 Z M 14.132812 6.328125 L 12.105469 7.648438 L 12.105469 21.34375 C 12.773438 21.273438 13.449219 21.226562 14.132812 21.207031 Z M 14.558594 5.546875 L 18.902344 7.140625 L 18.902344 13.859375 L 16.890625 15.167969 L 16.890625 21.261719 C 17.097656 21.273438 17.304688 21.289062 17.511719 21.304688 L 17.511719 15.683594 L 20.390625 13.8125 L 22.84375 15.40625 L 22.84375 22.429688 C 23.703125 22.726562 24.503906 23.074219 25.226562 23.460938 L 4.765625 23.460938 C 5.492188 23.074219 6.292969 22.730469 7.152344 22.4375 L 7.152344 14.519531 L 10.03125 12.652344 L 11.679688 13.722656 L 11.679688 7.417969 Z M 14.558594 5.546875 " fill-opacity="1" fill-rule="evenodd"/></g></svg>